<?xml version="1.0" standalone="no"?>
<!DOCTYPE svg PUBLIC "-//W3C//DTD SVG 20010904//EN"
 "http://www.w3.org/TR/2001/REC-SVG-20010904/DTD/svg10.dtd">
<svg version="1.0" xmlns="http://www.w3.org/2000/svg"
 width="180.000000pt" height="174.000000pt" viewBox="0 0 180.000000 174.000000"
 preserveAspectRatio="xMidYMid meet">
<metadata>
Created by potrace 1.10, written by Peter Selinger 2001-2011
</metadata>
<g transform="translate(0.000000,174.000000) scale(0.100000,-0.100000)"
fill="#fbfbfb" stroke="none">
<path d="M800 1391 c0 -11 -519 -531 -531 -531 -5 0 -9 -13 -9 -30 0 -16 4
-30 9 -30 12 0 531 -520 531 -531 0 -5 14 -9 30 -9 17 0 30 4 30 9 0 11 519
531 531 531 5 0 9 14 9 30 0 17 -4 30 -9 30 -12 0 -531 519 -531 531 0 5 -13
9 -30 9 -16 0 -30 -4 -30 -9z m62 -243 c20 -30 256 -266 286 -286 12 -8 22
-22 22 -32 0 -10 -10 -24 -22 -33 -27 -17 -181 -169 -255 -250 -28 -31 -57
-57 -63 -57 -6 0 -35 26 -63 57 -66 72 -148 154 -220 220 -31 28 -57 57 -57
63 0 6 26 35 57 63 81 74 233 228 250 255 9 12 23 22 33 22 10 0 24 -10 32
-22z"/>
</g>
</svg>
